HIERARCHY
ROOT Hips
{
	OFFSET 0.000000 0.000000 0.000000
	CHANNELS 6 Xposition Yposition Zposition Zrotation Yrotation Xrotation 
	JOINT LHipJoint
	{
		OFFSET 0.000000 0.000000 0.000000
		CHANNELS 3 Zrotation Yrotation Xrotation
		JOINT LeftUpLeg
		{
			OFFSET 1.363060 -1.794630 0.839290
			CHANNELS 3 Zrotation Yrotation Xrotation
			JOINT LeftLeg
			{
				OFFSET 2.448110 -6.726130 0.000000
				CHANNELS 3 Zrotation Yrotation Xrotation
				JOINT LeftFoot
				{
					OFFSET 2.562200 -7.039590 0.000000
					CHANNELS 3 Zrotation Yrotation Xrotation
					JOINT LeftToeBase
					{
						OFFSET 0.157640 -0.433110 2.322550
						CHANNELS 3 Zrotation Yrotation Xrotation
						End Site
						{
							OFFSET 0.000000 0.000000 0.000000
						}
					}
				}
			}
		}
	}
	JOINT RHipJoint
	{
		OFFSET 0.000000 0.000000 0.000000
		CHANNELS 3 Zrotation Yrotation Xrotation
		JOINT RightUpLeg
		{
			OFFSET -1.305520 -1.794630 0.839290
			CHANNELS 3 Zrotation Yrotation Xrotation
			JOINT RightLeg
			{
				OFFSET -2.542530 -6.985550 0.000000
				CHANNELS 3 Zrotation Yrotation Xrotation
				JOINT RightFoot
				{
					OFFSET -2.568260 -7.056230 0.000000
					CHANNELS 3 Zrotation Yrotation Xrotation
					JOINT RightToeBase
					{
						OFFSET -0.164730 -0.452590 2.363150
						CHANNELS 3 Zrotation Yrotation Xrotation
						End Site
						{
							OFFSET 0.000000 0.000000 0.000000
						}
					}
				}
			}
		}
	}
	JOINT LowerBack
	{
		OFFSET 0.000000 0.000000 0.000000
		CHANNELS 3 Zrotation Yrotation Xrotation
		JOINT Spine
		{
			OFFSET 0.028270 2.035590 -0.193380
			CHANNELS 3 Zrotation Yrotation Xrotation
			JOINT Spine1
			{
				OFFSET 0.056720 2.048850 -0.042750
				CHANNELS 3 Zrotation Yrotation Xrotation
				JOINT Neck
				{
					OFFSET 0.000000 0.000000 0.000000
					CHANNELS 3 Zrotation Yrotation Xrotation
					JOINT Neck1
					{
						OFFSET -0.054170 1.746240 0.172020
						CHANNELS 3 Zrotation Yrotation Xrotation
						JOINT Head
						{
							OFFSET 0.104070 1.761360 -0.123970
							CHANNELS 3 Zrotation Yrotation Xrotation
							End Site
							{
								OFFSET 0.000000 0.000000 0.000000
							}
						}
					}
				}
				JOINT LeftShoulder
				{
					OFFSET 0.000000 0.000000 0.000000
					CHANNELS 3 Zrotation Yrotation Xrotation
					JOINT LeftArm
					{
						OFFSET 3.362410 1.200890 -0.311210
						CHANNELS 3 Zrotation Yrotation Xrotation
						JOINT LeftForeArm
						{
							OFFSET 4.983000 -0.000000 -0.000000
							CHANNELS 3 Zrotation Yrotation Xrotation
							JOINT LeftHand
							{
								OFFSET 3.483560 -0.000000 -0.000000
								CHANNELS 3 Zrotation Yrotation Xrotation
								JOINT LeftFingerBase
								{
									OFFSET 0.000000 0.000000 0.000000
									CHANNELS 3 Zrotation Yrotation Xrotation
									JOINT LeftHandIndex1
									{
										OFFSET 0.715260 -0.000000 -0.000000
										CHANNELS 3 Zrotation Yrotation Xrotation
										End Site
										{
											OFFSET 0.000000 0.000000 0.000000
										}
									}
								}
								JOINT LThumb
								{
									OFFSET 0.000000 0.000000 0.000000
									CHANNELS 3 Zrotation Yrotation Xrotation
									End Site
									{
										OFFSET 0.000000 0.000000 0.000000
									}
								}
							}
						}
					}
				}
				JOINT RightShoulder
				{
					OFFSET 0.000000 0.000000 0.000000
					CHANNELS 3 Zrotation Yrotation Xrotation
					JOINT RightArm
					{
						OFFSET -3.136600 1.374050 -0.404650
						CHANNELS 3 Zrotation Yrotation Xrotation
						JOINT RightForeArm
						{
							OFFSET -5.241900 -0.000000 -0.000000
							CHANNELS 3 Zrotation Yrotation Xrotation
							JOINT RightHand
							{
								OFFSET -3.444170 -0.000000 -0.000000
								CHANNELS 3 Zrotation Yrotation Xrotation
								JOINT RightFingerBase
								{
									OFFSET 0.000000 0.000000 0.000000
									CHANNELS 3 Zrotation Yrotation Xrotation
									JOINT RightHandIndex1
									{
										OFFSET -0.622530 -0.000000 -0.000000
										CHANNELS 3 Zrotation Yrotation Xrotation
										End Site
										{
											OFFSET 0.000000 0.000000 0.000000
										}
									}
								}
								JOINT RThumb
								{
									OFFSET 0.000000 0.000000 0.000000
									CHANNELS 3 Zrotation Yrotation Xrotation
									End Site
									{
										OFFSET 0.000000 0.000000 0.000000
									}
								}
							}
						}
					}
				}
			}
		}
	}
}
MOTION
Frames: 10
Frame Time: 0.008333
-29.282516 17.458939 1.197283 53.656121 87.096740 47.758945 2.654680 -1.499403 0.013030 -16.371066 2.736772 16.758646 -1.549552 -0.086558 0.322309 -0.024602 1.281107 3.933081 0.000000 0.000000 0.000000 -4.460020 5.691443 -7.296790 13.544980 -12.992858 20.853476 -0.613061 -2.249170 1.674817 -0.367949 5.254224 -10.778155 -0.541200 -4.713500 13.093100 -1.438441 1.109783 8.258555 -0.415466 1.420715 -2.279525 0.014323 0.441685 2.441873 1.164342 3.094080 -19.759864 3.940041 3.647685 11.164549 -0.729100 2.082300 12.516700 6.067752 -0.468061 -0.202849 -93.399449 -0.291285 40.517091 11.876391 -20.439676 -2.391823 0.053339 -0.077555 14.928388 0.071518 -0.061196 -0.000000 0.000000 0.000000 0.000000 0.000000 0.000000 0.000000 -4.364030 0.513651 1.793818 4.806165 -0.890074 0.010434 -0.832498 -0.219229 0.000142 -0.057464 0.018542 0.000071 -0.057464 0.018542 0.000000 0.000000 0.000000 0.000000 0.000000 0.000000 0.000000 
-29.281697 17.463447 1.199639 53.935450 87.063232 47.912528 2.663911 -1.485220 0.004665 -16.738531 2.144296 17.372279 -1.570382 -0.242626 -0.085447 -0.023968 1.272465 3.895674 0.000000 0.000000 0.000000 -4.445258 5.690493 -7.305916 13.642580 -12.778299 21.092576 -0.609253 -2.217714 1.612233 -0.381717 5.129313 -11.010080 -0.410300 -4.111900 11.391600 -1.542265 1.106580 8.440721 -0.394384 1.400710 -2.271122 0.034426 0.453299 2.246410 1.663928 3.222181 -19.175249 3.123606 3.586061 10.653347 -1.360100 1.990000 12.075300 6.151662 -0.571259 -0.145302 -93.443332 -0.163729 40.351070 11.861455 -20.441558 -2.389528 0.052600 -0.077111 14.936886 0.070698 -0.060948 -0.000000 0.000000 0.000000 0.000000 0.000000 0.000000 0.000000 -4.313631 0.443812 1.778626 4.859532 -0.921004 0.010723 -0.851324 -0.223141 0.000145 -0.058027 0.018906 0.000073 -0.058027 0.018906 0.000000 0.000000 0.000000 0.000000 0.000000 0.000000 0.000000 
-29.280877 17.464573 1.199844 53.488573 86.971759 47.480021 2.590445 -1.449367 0.014247 -16.837556 1.934891 17.547046 -1.576186 -0.297136 -0.260275 -0.022777 1.281739 3.881645 0.000000 0.000000 0.000000 -4.535343 5.737895 -7.356229 13.579777 -12.931660 21.086264 -0.610630 -2.207235 1.609721 -0.373997 5.237129 -10.831347 -0.432700 -4.221400 11.700500 -0.952544 1.170372 8.517710 0.392226 1.517679 -2.485837 -2.208470 0.596152 2.368892 0.613547 2.674238 -19.248031 4.551867 3.378862 10.802524 -1.055800 2.049000 12.284300 6.772170 -0.966299 -0.107214 -92.439866 -0.057892 40.743300 11.629685 -21.052422 -2.389774 0.019563 -0.049907 14.701213 0.031588 -0.043308 -0.000000 0.000000 0.000000 0.000000 0.000000 0.000000 0.000000 -6.438210 1.684685 1.716016 89.421913 -4.179235 37.089247 -18.422283 32.956211 -4.866121 0.523254 -2.813467 4.616516 -9.152709 -35.618877 5.421000 7.125000 0.000000 0.000000 26.258200 -61.167000 -10.758000 
-29.280570 17.464061 1.198512 53.341451 87.006734 47.366432 2.595120 -1.453160 0.010285 -16.838000 1.864205 17.567967 -1.577786 -0.319102 -0.312669 -0.023050 1.280604 3.882133 0.000000 0.000000 0.000000 -4.538052 5.736498 -7.348301 13.546557 -13.048276 21.003669 -0.612280 -2.216840 1.621060 -0.368498 5.341154 -10.731255 -0.466300 -4.379900 12.148000 -0.885240 1.184606 8.491911 0.394749 1.530264 -2.491068 -2.269831 0.615986 2.303477 0.911495 2.758461 -18.974725 4.118489 3.344961 10.540493 -1.394700 2.001000 12.059600 6.798504 -1.034237 -0.084664 -92.434464 -0.058593 40.747822 11.580266 -20.991194 -2.373475 0.019308 -0.049885 14.627412 0.031280 -0.043393 -0.000000 0.000000 0.000000 0.000000 0.000000 0.000000 0.000000 -6.362225 1.653172 1.743619 89.430810 -4.640805 37.137787 -18.982290 33.553996 -5.104802 0.529202 -2.827810 4.863227 -9.184501 -36.598081 5.591200 7.125000 0.000000 0.000000 27.130000 -62.025800 -11.699000 
-29.279238 17.463242 1.197590 53.713033 86.974052 47.737486 2.592088 -1.444397 0.018574 -16.845492 1.945601 17.518667 -1.576150 -0.309854 -0.299096 -0.022377 1.283772 3.880669 0.000000 0.000000 0.000000 -4.533451 5.756449 -7.350409 13.456952 -13.108415 21.010856 -0.613241 -2.210017 1.609127 -0.371050 5.461961 -10.764507 -0.444800 -4.279000 11.863000 -0.957599 1.142889 8.481556 0.402817 1.475526 -2.498650 -2.181260 0.576795 2.346083 0.671445 2.718403 -19.230309 4.495376 3.421217 10.814407 -1.100300 2.067500 12.293000 6.778230 -0.975671 -0.106270 -92.505630 -0.060058 40.552362 11.517528 -20.896995 -2.350775 0.019221 -0.049568 14.675912 0.031152 -0.043081 -0.000000 0.000000 0.000000 0.000000 0.000000 0.000000 0.000000 -6.425874 1.686989 1.719148 89.397237 -4.307994 37.395298 -18.436791 32.964172 -4.880596 0.478290 -2.817493 4.959938 -9.708495 -35.870685 5.750500 7.125000 0.000000 0.000000 25.933600 -61.509200 -10.825900 
-29.278214 17.463447 1.198307 53.011254 87.129752 47.085434 2.469507 -1.429010 0.121915 -16.381855 2.106047 17.139983 -1.950392 -0.212962 -0.018612 -1.011132 11.487498 -12.705442 0.290600 -3.466600 -9.580500 -4.514809 5.711663 -7.393560 13.642768 -13.074117 21.017320 -0.613043 -2.222075 1.583039 -0.370742 5.500759 -10.785739 -0.438900 -4.250900 11.783500 -0.532216 1.183045 8.276483 0.352825 1.556701 -2.427303 -2.607465 0.624358 2.632088 0.891315 2.667282 -19.261787 4.179186 3.229381 10.542334 -1.347400 1.948900 12.106000 6.813638 -1.005891 -0.067833 -92.303667 -0.301702 40.767017 11.489756 -20.901050 -2.375109 -0.085918 0.752197 14.503273 13.751932 -26.044162 -6.411900 -7.125000 0.000000 0.000000 -9.566700 2.867400 9.207200 -6.452556 1.620785 1.730373 89.761719 -4.268755 36.398869 -18.153468 32.721667 -4.748030 0.396752 -2.753265 6.173631 -10.417528 -33.291244 5.711400 7.125000 0.000000 0.000000 23.055900 -59.416200 -8.391400 
-29.278521 17.463652 1.199741 52.312837 87.205082 46.401019 2.457256 -1.442065 0.128241 -16.030814 2.530163 16.775392 -1.919171 -0.092217 0.315545 -0.942021 10.929699 -12.444482 0.252300 -3.231700 -8.924400 -4.532808 5.669494 -7.387026 13.896065 -12.878727 21.020918 -0.614028 -2.225620 1.587630 -0.374115 5.388086 -10.857148 -0.450600 -4.306700 11.941000 -0.476235 1.148954 8.272021 0.368070 1.517914 -2.439168 -2.535466 0.591142 2.651890 0.668292 2.604401 -19.491002 4.518828 3.268100 10.830057 -1.082700 1.999600 12.341900 6.785031 -0.965602 -0.092466 -92.356480 -0.245610 40.668652 11.471083 -20.867492 -2.367543 -0.093649 0.749860 14.540451 14.009987 -25.822581 -6.486400 -7.125000 0.000000 0.000000 -9.392500 3.056300 9.002000 -6.468296 1.663937 1.720517 89.723908 -4.336721 36.428127 -18.274472 32.843581 -4.787673 0.386338 -2.739280 6.117176 -10.737591 -32.990428 5.820300 7.125000 0.000000 0.000000 22.511400 -59.219300 -8.073400 
-29.279443 17.463549 1.200970 51.400648 87.300496 45.543927 2.451941 -1.461401 0.121389 -15.820895 2.653038 16.614800 -1.906535 -0.051429 0.445677 -0.911639 10.691279 -12.387801 0.292800 -3.479800 -9.617600 -4.554089 5.619993 -7.376103 14.148618 -12.747860 20.967375 -0.613141 -2.227446 1.573679 -0.375849 5.197369 -10.915633 -0.463600 -4.367500 12.112900 -0.362727 1.170812 8.214603 0.379785 1.544210 -2.439776 -2.591856 0.609703 2.612719 0.942084 2.705995 -19.244742 4.136471 3.266247 10.547744 -1.380900 1.965700 12.108900 6.820435 -1.026165 -0.065661 -92.329626 -0.218433 40.715189 11.426072 -20.812151 -2.351195 -0.126032 0.755506 14.627025 15.219794 -25.610665 -7.019000 -7.125000 0.000000 0.000000 -8.629900 3.095200 8.246900 -6.420863 1.615183 1.734501 89.693956 -4.485121 36.488573 -18.411153 32.979647 -4.841766 0.405993 -2.747043 5.986891 -10.549553 -33.354846 5.791600 7.125000 0.000000 0.000000 22.971900 -59.506600 -8.408900 
-29.279443 17.463549 1.201688 49.881724 87.391269 44.041603 2.445698 -1.491055 0.103142 -15.860958 2.280187 16.885331 -1.928738 -0.145581 0.233997 -0.967112 11.133013 -12.658594 0.326800 -3.674200 -10.161900 -4.581500 5.557137 -7.351528 14.362342 -12.710539 20.916345 -0.612078 -2.229733 1.549541 -0.374211 5.087924 -10.907971 -0.486300 -4.471400 12.406700 -0.217755 1.170662 8.226162 0.384520 1.553980 -2.453497 -2.636404 0.608835 2.558450 0.921153 2.694245 -19.204311 4.170043 3.256103 10.546228 -1.354000 1.964200 12.098600 6.810565 -1.037231 -0.067706 -92.308542 -0.176422 40.681097 11.382598 -20.744097 -2.335763 -0.080023 0.740194 14.674507 13.379984 -25.612422 -6.138600 -7.125000 0.000000 0.000000 -9.765300 3.361200 9.314400 -6.403654 1.616783 1.738180 89.681400 -4.607523 36.533014 -18.715102 33.317907 -4.975917 0.475729 -2.784451 5.408641 -9.819657 -34.589704 5.626100 7.125000 0.000000 0.000000 24.677700 -60.433200 -9.630300 
-29.278112 17.463959 1.201278 50.232402 87.327836 44.381061 2.451849 -1.480754 0.097500 -16.215612 1.745869 17.292325 -1.965085 -0.270154 -0.101396 -1.045722 11.768034 -12.999585 0.318200 -3.626000 -10.026700 -4.568241 5.574411 -7.357043 14.274119 -12.700813 20.977439 -0.611769 -2.204111 1.492434 -0.376759 5.062771 -10.944035 -0.501700 -4.540800 12.603400 -0.267266 1.178432 8.224457 0.377266 1.562753 -2.446551 -2.639464 0.615055 2.582691 0.868409 2.668538 -19.193332 4.208654 3.235139 10.516732 -1.321800 1.952400 12.070900 6.809508 -1.032400 -0.065309 -92.330641 -0.188201 40.552109 11.343352 -20.690130 -2.322813 -0.062681 0.733978 14.673935 12.662437 -25.611127 -5.797800 -7.125000 0.000000 0.000000 -10.207200 3.461900 9.730500 -6.427087 1.619633 1.737156 89.742552 -4.576227 36.345265 -18.434002 33.014177 -4.854225 0.411374 -2.750976 6.096131 -10.424289 -33.414737 5.741800 7.125000 0.000000 0.000000 23.136800 -59.533800 -8.488600 
